<?xml version="1.0" encoding="iso-8859-1"?>
<!-- Uploaded to: SVG Repo, www.svgrepo.com, Generator: SVG Repo Mixer Tools -->
<svg height="800px" width="800px" version="1.1" id="Layer_1" xmlns="http://www.w3.org/2000/svg" xmlns:xlink="http://www.w3.org/1999/xlink" 
	 viewBox="0 0 512.002 512.002" xml:space="preserve">
<circle style="fill:#CFEB70;" cx="209.741" cy="122.548" r="109.049"/>
<path d="M270.775,116.359c-0.882,0-1.777-0.095-2.646-0.271c-0.868-0.176-1.723-0.434-2.551-0.773
	c-0.814-0.339-1.601-0.76-2.333-1.248c-0.746-0.488-1.438-1.058-2.062-1.682c-0.624-0.624-1.194-1.316-1.696-2.062
	c-0.488-0.733-0.895-1.519-1.235-2.347c-0.339-0.814-0.611-1.669-0.787-2.537c-0.163-0.868-0.258-1.764-0.258-2.646
	c0-0.882,0.095-1.777,0.258-2.645c0.176-0.868,0.448-1.723,0.787-2.551c0.339-0.814,0.746-1.601,1.235-2.333
	c0.502-0.746,1.072-1.438,1.696-2.062c0.624-0.624,1.316-1.194,2.062-1.696c0.733-0.488,1.519-0.895,2.333-1.235
	c0.828-0.339,1.682-0.61,2.551-0.787c1.75-0.339,3.541-0.339,5.291,0c0.868,0.176,1.723,0.448,2.537,0.787
	c0.828,0.339,1.614,0.746,2.347,1.235c0.746,0.502,1.438,1.072,2.062,1.696c0.624,0.624,1.194,1.316,1.682,2.062
	c0.488,0.733,0.909,1.519,1.248,2.333c0.339,0.828,0.597,1.682,0.773,2.551c0.176,0.868,0.271,1.764,0.271,2.645
	c0,0.882-0.095,1.777-0.271,2.646c-0.176,0.868-0.434,1.723-0.773,2.537c-0.339,0.828-0.76,1.614-1.248,2.347
	c-0.488,0.746-1.058,1.438-1.682,2.062c-0.624,0.624-1.316,1.194-2.062,1.682c-0.733,0.488-1.519,0.909-2.347,1.248
	c-0.814,0.339-1.669,0.597-2.537,0.773C272.552,116.264,271.657,116.359,270.775,116.359z"/>
<path d="M164.369,90.75c-3.472,0-6.945-1.324-9.593-3.974c-5.298-5.298-5.298-13.888,0-19.187
	c27.314-27.312,71.112-30.331,101.873-7.021c5.972,4.524,7.146,13.033,2.62,19.006c-4.524,5.972-13.035,7.146-19.006,2.62
	c-20.018-15.168-48.521-13.199-66.302,4.581C171.312,89.426,167.84,90.75,164.369,90.75z"/>
<path d="M296.437,35.854c-47.806-47.805-125.592-47.806-173.398,0c-44.562,44.562-47.565,115.165-9.05,163.261l-56.402,56.402
	v-18.257c0-7.493-6.074-13.567-13.567-13.567s-13.567,6.074-13.567,13.567v51.009c0,7.493,6.074,13.567,13.567,13.567H95.03
	c7.493,0,13.567-6.074,13.567-13.567s-6.074-13.567-13.567-13.567H76.774l56.398-56.399c21.666,17.392,48.383,26.859,76.566,26.859
	c32.751,0,63.541-12.754,86.698-35.912c23.158-23.158,35.912-53.948,35.912-86.699S319.596,59.012,296.437,35.854z M277.251,190.066
	C277.25,190.066,277.25,190.066,277.251,190.066c-18.033,18.033-42.009,27.965-67.513,27.965s-49.48-9.932-67.513-27.965
	c-37.227-37.226-37.227-97.798,0-135.025c18.616-18.616,43.061-27.92,67.513-27.92c24.447,0,48.901,9.309,67.512,27.92
	c18.033,18.033,27.965,42.009,27.965,67.513S295.284,172.033,277.251,190.066z"/>
<circle style="fill:#FF5E8A;" cx="299.702" cy="389.444" r="109.049"/>
<path d="M238.676,422.775c-0.882,0-1.777-0.081-2.659-0.258c-0.855-0.176-1.709-0.448-2.537-0.787
	c-0.814-0.339-1.601-0.746-2.333-1.235c-0.746-0.502-1.438-1.072-2.062-1.696c-0.624-0.624-1.194-1.316-1.696-2.062
	c-0.488-0.733-0.909-1.519-1.248-2.333c-0.339-0.828-0.597-1.682-0.773-2.537c-0.176-0.882-0.258-1.777-0.258-2.659
	c0-0.882,0.081-1.777,0.258-2.646c0.176-0.868,0.434-1.723,0.773-2.537c0.339-0.828,0.76-1.614,1.248-2.347
	c0.502-0.746,1.072-1.438,1.696-2.062c0.624-0.624,1.316-1.194,2.062-1.682c0.733-0.488,1.519-0.909,2.333-1.248
	c0.828-0.339,1.682-0.597,2.537-0.773c1.75-0.353,3.554-0.353,5.305,0c0.868,0.176,1.723,0.434,2.537,0.773
	c0.828,0.339,1.614,0.76,2.347,1.248c0.746,0.488,1.438,1.058,2.062,1.682c0.624,0.624,1.194,1.316,1.682,2.062
	c0.488,0.733,0.909,1.519,1.248,2.347c0.339,0.814,0.597,1.669,0.773,2.537c0.176,0.868,0.271,1.764,0.271,2.646
	c0,0.882-0.095,1.777-0.271,2.659c-0.176,0.855-0.434,1.709-0.773,2.537c-0.339,0.814-0.76,1.601-1.248,2.333
	c-0.488,0.746-1.058,1.438-1.682,2.062c-0.624,0.624-1.316,1.194-2.062,1.696c-0.733,0.488-1.519,0.895-2.347,1.235
	c-0.814,0.339-1.669,0.611-2.537,0.787C240.453,422.694,239.558,422.775,238.676,422.775z"/>
<path d="M299.613,467.09c-16.452,0-32.955-5.157-46.816-15.66c-5.972-4.524-7.146-13.033-2.62-19.006
	c4.524-5.973,13.036-7.146,19.006-2.62c20.016,15.166,48.522,13.199,66.3-4.581c5.298-5.298,13.888-5.298,19.187,0
	c5.298,5.298,5.298,13.888,0,19.187C339.665,459.417,319.677,467.09,299.613,467.09z"/>
<path d="M477.574,267.701l-18.467-18.467l15.613-15.613c5.298-5.298,5.298-13.888,0-19.187c-5.298-5.298-13.888-5.298-19.187,0
	l-15.613,15.612l-18.467-18.467c-5.298-5.298-13.888-5.298-19.187,0c-5.298,5.298-5.298,13.888,0,19.187l18.467,18.467
	l-44.462,44.462c-21.665-17.392-48.381-26.859-76.565-26.859c-32.751,0-63.541,12.754-86.699,35.912
	c-47.805,47.806-47.805,125.592,0,173.398c23.903,23.903,55.3,35.854,86.699,35.854s62.796-11.951,86.699-35.854
	c23.158-23.158,35.912-53.949,35.912-86.699c0-28.183-9.467-54.9-26.859-76.565l44.461-44.461l18.467,18.467
	c2.65,2.65,6.121,3.974,9.593,3.974s6.945-1.324,9.593-3.974C482.873,281.59,482.873,272.999,477.574,267.701z M367.22,456.96
	c-37.226,37.227-97.798,37.227-135.025,0s-37.227-97.799,0-135.025c18.033-18.033,42.009-27.965,67.513-27.965
	c25.501,0,49.475,9.931,67.508,27.961c0.001,0.001,0.003,0.003,0.004,0.004c0.001,0.001,0.003,0.003,0.004,0.004
	c18.03,18.033,27.961,42.006,27.961,67.508C395.185,414.951,385.254,438.927,367.22,456.96z"/>
</svg>