<svg width="32" height="32" viewBox="0 0 32 32" fill="none" xmlns="http://www.w3.org/2000/svg">
<title>message</title>
<g clip-path="url(#clip0_304_4009)">
<path d="M13.1873 9.68738C5.95025 9.68738 0.000122685 14.6641 0.000122685 20.7815C0.000122685 23.2268 0.948623 25.712 2.68806 27.6382L0.231748 30.4451C0.11316 30.5806 0.0361778 30.7474 0.010037 30.9256C-0.0161038 31.1037 0.00970696 31.2856 0.0843727 31.4494C0.15866 31.6135 0.278652 31.7526 0.42998 31.8502C0.581307 31.9478 0.757557 31.9997 0.937623 31.9997H14.1248C19.4682 31.9997 26.3745 27.3984 26.3745 20.7815C26.3745 14.6641 20.4244 9.68738 13.1873 9.68738ZM7.49994 22.4999C6.46631 22.4999 5.625 21.6585 5.625 20.6249C5.625 19.5913 6.46637 18.75 7.49994 18.75C8.5335 18.75 9.37487 19.5914 9.37487 20.6249C9.37494 21.6585 8.53356 22.4999 7.49994 22.4999ZM13.1873 22.4999C12.1537 22.4999 11.3124 21.6585 11.3124 20.6249C11.3124 19.5913 12.1537 18.75 13.1873 18.75C14.2209 18.75 15.0622 19.5914 15.0622 20.6249C15.0622 21.6585 14.2209 22.4999 13.1873 22.4999ZM18.8747 22.4999C17.8411 22.4999 16.9997 21.6585 16.9997 20.6249C16.9997 19.5913 17.8411 18.75 18.8747 18.75C19.9082 18.75 20.7496 19.5914 20.7496 20.6249C20.7496 21.6585 19.9083 22.4999 18.8747 22.4999Z" fill="#9974F6"/>
<path d="M31.7732 19.0767L29.566 16.5014C31.1416 14.7236 31.9994 12.5556 31.9994 10.3126C31.9994 4.62643 26.532 0.000366211 19.8122 0.000366211C13.7356 0.000366211 8.57306 3.78718 7.6615 8.71599C9.357 8.13987 11.2584 7.81237 13.1874 7.81237C21.3969 7.81237 28.1418 13.5464 28.2404 20.6249H31.0619C31.8627 20.6249 32.2928 19.6819 31.7732 19.0767Z" fill="#6A3AA2"/>
</g>
<defs>
<clipPath id="clip0_304_4009">
<rect width="32" height="32" fill="white"/>
</clipPath>
</defs>
</svg>
