<svg width="43" height="32" viewBox="0 0 43 32" fill="none" xmlns="http://www.w3.org/2000/svg">
<path d="M36.7914 7.80216C36.445 6.24552 35.7327 4.79422 34.7138 3.5689C33.695 2.34358 32.3989 1.37963 30.9334 0.757183C25.7882 -1.47459 21.1108 1.86563 18.527 4.90829C15.9582 1.84331 11.2807 -1.54155 6.1058 0.757183C4.64405 1.38418 3.35159 2.34966 2.33455 3.57434C1.31751 4.79901 0.604911 6.24795 0.255264 7.80216C-0.145046 9.86436 -0.0737664 11.9906 0.463749 14.0213C1.00126 16.0519 1.99104 17.9341 3.35872 19.5264C7.50161 24.4959 17.25 31.4292 17.6658 31.7268C17.9166 31.9046 18.2162 32 18.5233 32C18.8305 32 19.1301 31.9046 19.3809 31.7268C19.7892 31.4367 29.545 24.4959 33.6879 19.5264C35.0551 17.9338 36.0446 16.0516 36.5821 14.0211C37.1196 11.9905 37.1912 9.86437 36.7914 7.80216Z" fill="#6A3AA2"/>
<path d="M42.8201 13.0691C42.5646 11.9484 42.046 10.9048 41.3074 10.0251C40.5688 9.14529 39.6315 8.45465 38.5733 8.01043C34.861 6.35891 31.4977 8.75436 29.6638 10.9861C27.8077 8.75436 24.4667 6.3366 20.7099 8.01043C19.6579 8.46463 18.7282 9.16174 17.9965 10.0448C17.2649 10.9279 16.7521 11.9719 16.5001 13.0914C16.2148 14.5738 16.2669 16.1015 16.6525 17.5608C17.0382 19.0202 17.7474 20.3735 18.7275 21.5201C21.6973 25.0984 28.7358 30.105 29.0328 30.3208C29.2135 30.4472 29.4286 30.515 29.649 30.515C29.8694 30.515 30.0845 30.4472 30.2652 30.3208C30.5622 30.105 37.5784 25.1133 40.5631 21.5201C41.552 20.3739 42.2689 19.0179 42.6598 17.5542C43.0507 16.0905 43.1055 14.5571 42.8201 13.0691Z" fill="#9974F6"/>
</svg>
