<svg width="37" height="32" viewBox="0 0 37 32" fill="none" xmlns="http://www.w3.org/2000/svg">
<path d="M29.7143 11.4286C29.7143 15.2686 27.8171 18.6742 24.8914 20.7542C23.6571 21.6456 22.8571 23.0171 22.8571 24.5486V25.1429L18.2857 26.2857L13.7143 25.1429V24.5486C13.7143 23.0172 12.9144 21.6456 11.68 20.7542C8.75436 18.6742 6.85715 15.2686 6.85715 11.4286C6.85715 5.12 11.9771 0 18.2857 0C24.5943 0 29.7143 5.12 29.7143 11.4286Z" fill="#9974F6"/>
<path d="M18.2857 11.4286C20.1793 11.4286 21.7143 9.89353 21.7143 7.99998C21.7143 6.10643 20.1793 4.57141 18.2857 4.57141C16.3922 4.57141 14.8571 6.10643 14.8571 7.99998C14.8571 9.89353 16.3922 11.4286 18.2857 11.4286Z" fill="#6A3AA2"/>
<path d="M24 18.2857H12.5714V17.1428C12.5714 13.9869 15.1298 11.4286 18.2857 11.4286C21.4416 11.4286 24 13.9869 24 17.1428V18.2857ZM22.8571 27.4286C22.8571 28.6857 21.8286 29.7143 20.5714 29.7143V32H16V29.7143C14.7429 29.7143 13.7143 28.6857 13.7143 27.4286L18.2857 26.2857L22.8571 27.4286ZM0 10.2857H4.57143V12.5714H0V10.2857ZM32 10.2857H36.5714V12.5714H32V10.2857ZM1.87836 19.5811L5.83721 17.2954L6.98007 19.2748L3.02121 21.5606L1.87836 19.5811ZM29.5904 3.58155L33.5493 1.29584L34.6921 3.27527L30.7333 5.56098L29.5904 3.58155ZM3.02121 1.29584L6.98007 3.58155L5.83721 5.56098L1.87836 3.27527L3.02121 1.29584ZM30.7333 17.2954L34.6921 19.5811L33.5493 21.5606L29.5904 19.2748L30.7333 17.2954Z" fill="#6A3AA2"/>
<path d="M13.7143 25.1429H22.8572V27.4286H13.7143V25.1429Z" fill="#6A3AA2"/>
</svg>
