<svg width="25" height="32" viewBox="0 0 25 32" fill="none" xmlns="http://www.w3.org/2000/svg">
<path d="M0 0.9375V25.4375C0 25.9557 0.419312 26.375 0.9375 26.375H17.8125C18.3307 26.375 18.75 25.9557 18.75 25.4375V0.9375C18.75 0.419312 18.3307 0 17.8125 0H0.9375C0.419312 0 0 0.419312 0 0.9375ZM15 21.625H11.25C10.7318 21.625 10.3125 21.2057 10.3125 20.6875C10.3125 20.1693 10.7318 19.75 11.25 19.75H15C15.5182 19.75 15.9375 20.1693 15.9375 20.6875C15.9375 21.2057 15.5182 21.625 15 21.625ZM3.75 4.75H9.375C9.89319 4.75 10.3125 5.16931 10.3125 5.6875C10.3125 6.20569 9.89319 6.625 9.375 6.625H3.75C3.23181 6.625 2.8125 6.20569 2.8125 5.6875C2.8125 5.16931 3.23181 4.75 3.75 4.75ZM3.75 8.5H15C15.5182 8.5 15.9375 8.91931 15.9375 9.4375C15.9375 9.95569 15.5182 10.375 15 10.375H3.75C3.23181 10.375 2.8125 9.95569 2.8125 9.4375C2.8125 8.91931 3.23181 8.5 3.75 8.5ZM3.75 12.25H15C15.5182 12.25 15.9375 12.6693 15.9375 13.1875C15.9375 13.7057 15.5182 14.125 15 14.125H3.75C3.23181 14.125 2.8125 13.7057 2.8125 13.1875C2.8125 12.6693 3.23181 12.25 3.75 12.25ZM3.75 16H15C15.5182 16 15.9375 16.4193 15.9375 16.9375C15.9375 17.4557 15.5182 17.875 15 17.875H3.75C3.23181 17.875 2.8125 17.4557 2.8125 16.9375C2.8125 16.4193 3.23181 16 3.75 16Z" fill="#9974F6"/>
<path d="M6.5625 32H23.4375C23.9557 32 24.375 31.5807 24.375 31.0625V6.625C24.375 6.10681 23.9557 5.6875 23.4375 5.6875H20.625V25.4375C20.625 26.9884 19.3634 28.25 17.8125 28.25H5.625V31.0625C5.625 31.5807 6.04431 32 6.5625 32Z" fill="#6A3AA2"/>
</svg>
