<?xml version="1.0" encoding="iso-8859-1"?>
<!-- Uploaded to: SVG Repo, www.svgrepo.com, Generator: SVG Repo Mixer Tools -->
<svg height="800px" width="800px" version="1.1" id="Layer_1" xmlns="http://www.w3.org/2000/svg" xmlns:xlink="http://www.w3.org/1999/xlink" 
	 viewBox="0 0 256.72 256.72" xml:space="preserve">
<g>
	<g>
		<g id="XMLID_25_">
			<g>
				<g>
					<path style="fill:#2D213F;" d="M64.518,128.375c0,35.203,28.655,63.827,63.857,63.827c9.491,0,18.472-2.133,26.582-5.857
						c-0.571-2.133-0.901-4.325-0.901-6.638c0-13.817,11.174-25.02,24.99-25.02c2.433,0,4.746,0.36,6.938,0.991
						c3.965-8.29,6.248-17.541,6.248-27.303c0-35.233-28.655-63.857-63.857-63.857S64.518,93.143,64.518,128.375z M208.032,128.375
						c0,13.126-3.274,25.501-8.921,36.434c3.094,4.175,4.956,9.311,4.956,14.898c0,13.817-11.204,25.02-25.02,25.02
						c-5.707,0-10.963-1.952-15.168-5.166c-10.723,5.346-22.738,8.44-35.503,8.44c-43.913,0-79.656-35.713-79.656-79.626
						c0-43.943,35.743-79.656,79.656-79.656S208.032,84.432,208.032,128.375z"/>
				</g>
				<g>
					<path style="fill:#FEDE94;" d="M128.375,108.611c10.873,0,19.734,8.861,19.734,19.764c0,10.873-8.861,19.734-19.734,19.734
						c-10.903,0-19.764-8.861-19.764-19.734C108.611,117.472,117.472,108.611,128.375,108.611z"/>
				</g>
				<g>
					<path style="fill:#2D213F;" d="M128.375,148.109c10.873,0,19.734-8.861,19.734-19.734c0-10.903-8.861-19.764-19.734-19.764
						c-10.903,0-19.764,8.861-19.764,19.764C108.611,139.249,117.472,148.109,128.375,148.109z M128.375,92.812
						c19.584,0,35.533,15.949,35.533,35.563c0,19.584-15.949,35.533-35.533,35.533c-19.614,0-35.563-15.949-35.563-35.533
						C92.812,108.762,108.762,92.812,128.375,92.812z"/>
				</g>
				<g>
					<path style="fill:#FEDE94;" d="M43.463,64.518c-12.705,0-23.038-10.333-23.038-23.038s10.333-23.038,23.038-23.038
						S66.5,28.775,66.5,41.48S56.168,64.518,43.463,64.518z"/>
				</g>
				<g>
					<path style="fill:#2D213F;" d="M43.463,64.518c12.705,0,23.038-10.333,23.038-23.038S56.168,18.442,43.463,18.442
						S20.425,28.775,20.425,41.48S30.757,64.518,43.463,64.518z M128.375,0C199.141,0,256.72,57.58,256.72,128.375
						c0,70.766-57.58,128.345-128.345,128.345C57.58,256.721,0,199.141,0,128.375c0-21.836,5.497-42.381,15.168-60.373
						C8.65,61.034,4.626,51.723,4.626,41.48c0-21.416,17.421-38.837,38.837-38.837c10.603,0,20.214,4.265,27.213,11.174
						C88.037,5.016,107.62,0,128.375,0z M240.922,128.375c0-62.085-50.491-112.576-112.546-112.576
						c-17.511,0-34.121,4.025-48.899,11.204c1.802,4.475,2.823,9.371,2.823,14.478c0,21.416-17.421,38.837-38.837,38.837
						c-5.437,0-10.573-1.141-15.289-3.154c-7.87,15.379-12.375,32.77-12.375,51.212c0,62.055,50.491,112.546,112.576,112.546
						C190.43,240.922,240.922,190.43,240.922,128.375z"/>
				</g>
			</g>
		</g>
	</g>
</g>
</svg>